<?xml version="1.0" encoding="utf-8" standalone="no"?>
<!DOCTYPE svg PUBLIC "-//W3C//DTD SVG 1.1//EN"
  "http://www.w3.org/Graphics/SVG/1.1/DTD/svg11.dtd">
<svg xmlns:xlink="http://www.w3.org/1999/xlink" width="684pt" height="180.72pt" viewBox="0 0 684 180.72" xmlns="http://www.w3.org/2000/svg" version="1.1">
 <metadata>
  <rdf:RDF xmlns:dc="http://purl.org/dc/elements/1.1/" xmlns:cc="http://creativecommons.org/ns#" xmlns:rdf="http://www.w3.org/1999/02/22-rdf-syntax-ns#">
   <cc:Work>
    <dc:type rdf:resource="http://purl.org/dc/dcmitype/StillImage"/>
    <dc:date>2025-10-28T10:53:36.833428</dc:date>
    <dc:format>image/svg+xml</dc:format>
    <dc:creator>
     <cc:Agent>
      <dc:title>Matplotlib v3.10.7, https://matplotlib.org/</dc:title>
     </cc:Agent>
    </dc:creator>
   </cc:Work>
  </rdf:RDF>
 </metadata>
 <defs>
  <style type="text/css">*{stroke-linejoin: round; stroke-linecap: butt}</style>
 </defs>
 <g id="figure_1">
  <g id="patch_1">
   <path d="M 0 180.72 
L 684 180.72 
L 684 0 
L 0 0 
L 0 180.72 
z
" style="fill: none"/>
  </g>
  <g id="axes_1">
   <g id="text_1">
    <!-- $\triangle \text{Che vuoi?} \to a$ -->
    <g transform="translate(284.170018 94.345056) scale(0.16 -0.16)">
     <defs>
      <path id="CMSY10-34" d="M 2982 4461 
C 2938 4538 2918 4582 2842 4582 
C 2771 4582 2752 4557 2701 4454 
L 429 250 
C 378 166 378 154 378 128 
C 378 0 512 0 608 0 
L 5082 0 
C 5190 0 5306 0 5306 128 
C 5306 160 5293 179 5267 230 
L 2982 4461 
z
M 2842 4186 
L 4966 256 
L 717 256 
L 2842 4186 
z
" transform="scale(0.015625)"/>
      <path id="CMR17-43" d="M 3974 4289 
C 3974 4403 3968 4410 3930 4410 
C 3904 4410 3898 4403 3853 4327 
L 3571 3792 
C 3258 4187 2874 4416 2381 4416 
C 1286 4416 294 3456 294 2148 
C 294 826 1286 -128 2387 -128 
C 3366 -128 3974 730 3974 1461 
C 3974 1524 3974 1550 3917 1550 
C 3866 1550 3866 1531 3859 1474 
C 3808 585 3168 38 2477 38 
C 1824 38 781 495 781 2147 
C 781 3805 1843 4250 2464 4250 
C 3187 4250 3712 3628 3834 2745 
C 3846 2668 3846 2655 3904 2655 
C 3974 2655 3974 2668 3974 2783 
L 3974 4289 
z
" transform="scale(0.015625)"/>
      <path id="CMR17-68" d="M 2656 1933 
C 2656 2259 2592 2790 1837 2790 
C 1312 2790 1056 2368 979 2157 
L 973 2157 
L 973 4396 
L 211 4326 
L 211 4160 
C 589 4160 646 4122 646 3817 
L 646 426 
C 646 184 621 153 211 153 
L 211 -13 
C 365 0 646 0 813 0 
C 979 0 1267 0 1421 -13 
L 1421 153 
C 1011 153 986 178 986 428 
L 986 1658 
C 986 2247 1344 2688 1792 2688 
C 2266 2688 2317 2266 2317 1958 
L 2317 428 
C 2317 184 2291 153 1882 153 
L 1882 -13 
C 2035 0 2317 0 2483 0 
C 2650 0 2938 0 3091 -13 
L 3091 153 
C 2682 153 2656 178 2656 428 
L 2656 1933 
z
" transform="scale(0.015625)"/>
      <path id="CMR17-65" d="M 2438 1472 
C 2464 1498 2464 1511 2464 1576 
C 2464 2238 2118 2816 1389 2816 
C 710 2816 173 2169 173 1383 
C 173 551 781 -64 1459 -64 
C 2176 -64 2458 607 2458 740 
C 2458 784 2419 784 2406 784 
C 2362 784 2355 771 2330 696 
C 2189 265 1837 51 1504 51 
C 1229 51 954 203 781 480 
C 582 803 582 1176 582 1472 
L 2438 1472 
z
M 589 1568 
C 634 2505 1126 2714 1382 2714 
C 1818 2714 2112 2297 2118 1568 
L 589 1568 
z
" transform="scale(0.015625)"/>
      <path id="CMR17-76" d="M 2502 2163 
C 2560 2304 2662 2560 3034 2560 
L 3034 2726 
C 2912 2726 2752 2726 2630 2726 
C 2496 2726 2285 2726 2157 2732 
L 2157 2566 
C 2317 2553 2406 2477 2406 2311 
C 2406 2253 2406 2240 2368 2151 
L 1664 377 
L 902 2286 
C 864 2369 864 2381 864 2407 
C 864 2560 1075 2560 1171 2560 
L 1171 2732 
C 1018 2726 736 2726 576 2726 
C 403 2726 205 2726 64 2732 
L 64 2560 
C 307 2560 442 2560 518 2362 
L 1446 44 
C 1485 -51 1491 -64 1549 -64 
C 1606 -64 1613 -51 1651 44 
L 2502 2163 
z
" transform="scale(0.015625)"/>
      <path id="CMR17-75" d="M 1882 2693 
L 1882 2528 
C 2259 2528 2317 2489 2317 2186 
L 2317 1032 
C 2317 500 2029 38 1555 38 
C 1030 38 986 348 986 678 
L 986 2763 
L 211 2693 
L 211 2528 
C 467 2528 640 2528 646 2274 
L 646 1058 
C 646 633 646 361 813 183 
C 896 101 1056 -64 1517 -64 
C 2061 -64 2272 377 2323 506 
L 2330 506 
L 2330 -63 
L 3091 -63 
L 3091 128 
C 2714 128 2656 166 2656 473 
L 2656 2763 
L 1882 2693 
z
" transform="scale(0.015625)"/>
      <path id="CMR17-6f" d="M 2758 1356 
C 2758 2176 2163 2816 1466 2816 
C 768 2816 173 2176 173 1356 
C 173 551 768 -64 1466 -64 
C 2163 -64 2758 551 2758 1356 
z
M 1466 51 
C 1165 51 909 230 762 480 
C 602 767 582 1126 582 1408 
C 582 1677 595 2010 762 2298 
C 890 2509 1139 2714 1466 2714 
C 1754 2714 1997 2554 2150 2330 
C 2349 2029 2349 1607 2349 1408 
C 2349 1158 2336 775 2163 467 
C 1984 173 1709 51 1466 51 
z
" transform="scale(0.015625)"/>
      <path id="CMR17-69" d="M 992 3909 
C 992 4049 877 4170 730 4170 
C 589 4170 467 4056 467 3909 
C 467 3769 582 3648 730 3648 
C 870 3648 992 3763 992 3909 
z
M 243 2706 
L 243 2541 
C 602 2541 653 2502 653 2197 
L 653 427 
C 653 184 627 153 218 153 
L 218 -13 
C 371 0 646 0 806 0 
C 960 0 1222 0 1370 -13 
L 1370 153 
C 992 153 979 191 979 420 
L 979 2776 
L 243 2706 
z
" transform="scale(0.015625)"/>
      <path id="CMR17-3f" d="M 1350 1437 
C 1350 2037 1658 2567 2118 2930 
C 2240 3019 2464 3198 2464 3600 
C 2464 4117 2074 4480 1318 4480 
C 678 4480 294 4045 294 3628 
C 294 3382 506 3382 525 3382 
C 595 3382 755 3426 755 3611 
C 755 3770 634 3840 525 3840 
C 499 3840 467 3834 448 3828 
C 582 4222 966 4378 1306 4378 
C 2048 4378 2054 3868 2054 3632 
C 2054 3243 1933 3108 1811 2981 
C 1389 2529 1235 1929 1235 1463 
L 1235 1214 
C 1235 1106 1235 1081 1293 1081 
C 1350 1081 1350 1106 1350 1214 
L 1350 1437 
z
M 1555 261 
C 1555 401 1440 522 1293 522 
C 1152 522 1030 408 1030 261 
C 1030 121 1146 0 1293 0 
C 1434 0 1555 115 1555 261 
z
" transform="scale(0.015625)"/>
      <path id="CMSY10-21" d="M 5338 1472 
C 4986 1203 4813 941 4762 858 
C 4474 416 4422 13 4422 6 
C 4422 -70 4499 -70 4550 -70 
C 4659 -70 4666 -58 4691 58 
C 4838 685 5216 1222 5939 1517 
C 6016 1542 6035 1555 6035 1600 
C 6035 1645 5997 1664 5984 1670 
C 5702 1779 4928 2099 4685 3174 
C 4666 3251 4659 3270 4550 3270 
C 4499 3270 4422 3270 4422 3193 
C 4422 3180 4480 2777 4749 2349 
C 4877 2157 5062 1933 5338 1728 
L 582 1728 
C 467 1728 352 1728 352 1600 
C 352 1472 467 1472 582 1472 
L 5338 1472 
z
" transform="scale(0.015625)"/>
      <path id="CMMI12-61" d="M 1926 760 
C 1894 651 1894 639 1805 517 
C 1664 338 1382 64 1082 64 
C 819 64 672 300 672 677 
C 672 1028 870 1743 992 2012 
C 1210 2459 1510 2689 1760 2689 
C 2182 2689 2266 2165 2266 2114 
C 2266 2108 2246 2024 2240 2012 
L 1926 760 
z
M 2336 2395 
C 2266 2561 2093 2816 1760 2816 
C 1037 2816 256 1884 256 939 
C 256 307 627 -64 1062 -64 
C 1414 -64 1715 211 1894 422 
C 1958 45 2259 -64 2451 -64 
C 2643 -64 2797 51 2912 281 
C 3014 498 3104 888 3104 913 
C 3104 945 3078 971 3040 971 
C 2982 971 2976 939 2950 843 
C 2854 466 2733 64 2470 64 
C 2285 64 2272 230 2272 358 
C 2272 505 2291 575 2349 824 
C 2394 984 2426 1124 2477 1309 
C 2714 2267 2771 2497 2771 2535 
C 2771 2625 2701 2695 2605 2695 
C 2400 2695 2349 2472 2336 2395 
z
" transform="scale(0.015625)"/>
     </defs>
     <use xlink:href="#CMSY10-34" transform="scale(0.996264)"/>
     <use xlink:href="#CMR17-43" transform="translate(88.557026 0) scale(0.996264)"/>
     <use xlink:href="#CMR17-68" transform="translate(155.066906 0) scale(0.996264)"/>
     <use xlink:href="#CMR17-65" transform="translate(205.962276 0) scale(0.996264)"/>
     <use xlink:href="#CMR17-76" transform="translate(276.523903 0) scale(0.996264)"/>
     <use xlink:href="#CMR17-75" transform="translate(324.816819 0) scale(0.996264)"/>
     <use xlink:href="#CMR17-6f" transform="translate(375.712188 0) scale(0.996264)"/>
     <use xlink:href="#CMR17-69" transform="translate(421.402665 0) scale(0.996264)"/>
     <use xlink:href="#CMR17-3f" transform="translate(446.273724 0) scale(0.996264)"/>
     <use xlink:href="#CMSY10-21" transform="translate(517.035847 0) scale(0.996264)"/>
     <use xlink:href="#CMMI12-61" transform="translate(644.33653 0) scale(0.996264)"/>
    </g>
   </g>
  </g>
 </g>
</svg>
