<?xml version="1.0" encoding="utf-8" standalone="no"?>
<!DOCTYPE svg PUBLIC "-//W3C//DTD SVG 1.1//EN"
  "http://www.w3.org/Graphics/SVG/1.1/DTD/svg11.dtd">
<svg xmlns:xlink="http://www.w3.org/1999/xlink" width="684pt" height="180.72pt" viewBox="0 0 684 180.72" xmlns="http://www.w3.org/2000/svg" version="1.1">
 <metadata>
  <rdf:RDF xmlns:dc="http://purl.org/dc/elements/1.1/" xmlns:cc="http://creativecommons.org/ns#" xmlns:rdf="http://www.w3.org/1999/02/22-rdf-syntax-ns#">
   <cc:Work>
    <dc:type rdf:resource="http://purl.org/dc/dcmitype/StillImage"/>
    <dc:date>2025-10-28T10:53:37.132385</dc:date>
    <dc:format>image/svg+xml</dc:format>
    <dc:creator>
     <cc:Agent>
      <dc:title>Matplotlib v3.10.7, https://matplotlib.org/</dc:title>
     </cc:Agent>
    </dc:creator>
   </cc:Work>
  </rdf:RDF>
 </metadata>
 <defs>
  <style type="text/css">*{stroke-linejoin: round; stroke-linecap: butt}</style>
 </defs>
 <g id="figure_1">
  <g id="patch_1">
   <path d="M 0 180.72 
L 684 180.72 
L 684 0 
L 0 0 
L 0 180.72 
z
" style="fill: none"/>
  </g>
  <g id="axes_1">
   <g id="text_1">
    <!-- $(\$ \ \diamond \ D): \mathrm{Pulsion}$ -->
    <g transform="translate(280.709788 94.345056) scale(0.16 -0.16)">
     <defs>
      <path id="CMR17-28" d="M 1958 -1561 
C 1958 -1555 1958 -1542 1939 -1523 
C 1645 -1224 858 -407 858 1581 
C 858 3569 1632 4379 1946 4697 
C 1946 4704 1958 4717 1958 4736 
C 1958 4755 1939 4768 1914 4768 
C 1843 4768 1299 4296 986 3594 
C 666 2887 576 2199 576 1588 
C 576 1128 621 351 1005 -471 
C 1312 -1135 1837 -1600 1914 -1600 
C 1946 -1600 1958 -1587 1958 -1561 
z
" transform="scale(0.015625)"/>
      <path id="CMR17-24" d="M 1549 4327 
C 1901 4327 2381 4183 2502 3576 
C 2477 3589 2438 3595 2406 3595 
C 2323 3595 2176 3544 2176 3366 
C 2176 3206 2298 3136 2406 3136 
C 2541 3136 2637 3215 2637 3403 
C 2637 3939 2317 4480 1549 4480 
L 1549 4800 
L 1382 4800 
L 1382 4505 
C 749 4448 294 3936 294 3328 
C 294 2906 499 2637 602 2522 
C 838 2273 1011 2227 1382 2125 
L 1382 153 
C 1030 153 538 332 422 979 
C 448 967 493 960 525 960 
C 634 960 755 1031 755 1190 
C 755 1368 608 1419 525 1419 
C 416 1419 294 1368 294 1156 
C 294 514 685 0 1382 0 
L 1382 -320 
L 1549 -320 
L 1549 -13 
C 2214 45 2637 616 2637 1244 
C 2637 1408 2611 1771 2323 2107 
C 2086 2380 1837 2443 1549 2513 
L 1549 4327 
z
M 1382 2564 
C 1210 2602 979 2660 800 2846 
C 646 3013 550 3218 550 3455 
C 550 3840 838 4282 1382 4333 
L 1382 2564 
z
M 1549 2080 
C 1754 2035 1939 1979 2125 1782 
C 2214 1680 2381 1446 2381 1110 
C 2381 666 2067 204 1549 153 
L 1549 2080 
z
" transform="scale(0.015625)"/>
      <path id="CMSY10-5" d="M 1741 3034 
C 1664 3110 1651 3123 1600 3123 
C 1555 3123 1542 3110 1472 3040 
L 160 1728 
C 90 1658 77 1645 77 1600 
C 77 1574 90 1549 102 1523 
C 122 1510 339 1293 454 1178 
L 1363 262 
C 1421 211 1510 122 1523 102 
C 1530 102 1562 77 1600 77 
C 1613 77 1651 77 1683 109 
L 1843 262 
L 2938 1357 
L 3091 1517 
C 3098 1523 3123 1549 3123 1600 
C 3123 1651 3104 1670 3040 1734 
L 1741 3034 
z
M 1600 2816 
L 2816 1600 
L 1606 384 
L 390 1600 
L 1600 2816 
z
" transform="scale(0.015625)"/>
      <path id="CMMI12-44" d="M 1005 472 
C 947 249 934 185 486 185 
C 365 185 301 185 301 70 
C 301 0 339 0 467 0 
L 2496 0 
C 3789 0 5050 1332 5050 2753 
C 5050 3671 4499 4352 3584 4352 
L 1530 4352 
C 1408 4352 1350 4352 1350 4231 
C 1350 4167 1408 4167 1504 4167 
C 1894 4167 1894 4116 1894 4046 
C 1894 4034 1894 3995 1869 3899 
L 1005 472 
z
M 2355 3931 
C 2413 4167 2438 4167 2688 4167 
L 3392 4167 
C 3994 4167 4544 3842 4544 2963 
C 4544 2644 4416 1536 3795 835 
C 3616 625 3130 185 2394 185 
L 1664 185 
C 1574 185 1562 185 1523 192 
C 1453 198 1446 211 1446 262 
C 1446 307 1459 345 1472 402 
L 2355 3931 
z
" transform="scale(0.015625)"/>
      <path id="CMR17-29" d="M 1683 1581 
C 1683 2040 1638 2817 1254 3639 
C 947 4303 422 4768 346 4768 
C 326 4768 301 4761 301 4729 
C 301 4717 307 4710 314 4697 
C 621 4378 1402 3568 1402 1584 
C 1402 -407 627 -1217 314 -1537 
C 307 -1549 301 -1556 301 -1568 
C 301 -1600 326 -1600 346 -1600 
C 416 -1600 960 -1128 1274 -426 
C 1594 281 1683 969 1683 1581 
z
" transform="scale(0.015625)"/>
      <path id="CMR17-3a" d="M 1062 2491 
C 1062 2650 934 2752 800 2752 
C 672 2752 538 2650 538 2491 
C 538 2332 666 2230 800 2230 
C 928 2230 1062 2332 1062 2491 
z
M 1062 261 
C 1062 420 934 522 800 522 
C 672 522 538 420 538 261 
C 538 102 666 0 800 0 
C 928 0 1062 102 1062 261 
z
" transform="scale(0.015625)"/>
      <path id="CMR17-50" d="M 1267 2042 
L 2291 2042 
C 3117 2042 3718 2578 3718 3184 
C 3718 3791 3130 4352 2291 4352 
L 333 4352 
L 333 4186 
C 774 4186 845 4186 845 3899 
L 845 446 
C 845 160 774 160 333 160 
L 333 0 
C 518 0 858 0 1056 0 
C 1254 0 1594 0 1779 0 
L 1779 160 
C 1338 160 1267 160 1267 446 
L 1267 2042 
z
M 1254 2176 
L 1254 3938 
C 1254 4155 1267 4186 1523 4186 
L 2170 4186 
C 2995 4186 3232 3714 3232 3184 
C 3232 2604 2950 2176 2170 2176 
L 1254 2176 
z
" transform="scale(0.015625)"/>
      <path id="CMR17-75" d="M 1882 2693 
L 1882 2528 
C 2259 2528 2317 2489 2317 2186 
L 2317 1032 
C 2317 500 2029 38 1555 38 
C 1030 38 986 348 986 678 
L 986 2763 
L 211 2693 
L 211 2528 
C 467 2528 640 2528 646 2274 
L 646 1058 
C 646 633 646 361 813 183 
C 896 101 1056 -64 1517 -64 
C 2061 -64 2272 377 2323 506 
L 2330 506 
L 2330 -63 
L 3091 -63 
L 3091 128 
C 2714 128 2656 166 2656 473 
L 2656 2763 
L 1882 2693 
z
" transform="scale(0.015625)"/>
      <path id="CMR17-6c" d="M 979 4396 
L 218 4326 
L 218 4160 
C 595 4160 653 4122 653 3817 
L 653 426 
C 653 184 627 153 218 153 
L 218 -13 
C 371 0 653 0 813 0 
C 979 0 1261 0 1414 -13 
L 1414 153 
C 1005 153 979 178 979 426 
L 979 4396 
z
" transform="scale(0.015625)"/>
      <path id="CMR17-73" d="M 1978 2697 
C 1978 2813 1971 2819 1933 2819 
C 1907 2819 1901 2813 1824 2717 
C 1805 2691 1747 2626 1728 2601 
C 1523 2819 1235 2819 1126 2819 
C 416 2819 160 2447 160 2076 
C 160 1498 813 1365 998 1325 
C 1402 1243 1542 1217 1677 1101 
C 1760 1025 1901 884 1901 654 
C 1901 384 1747 38 1158 38 
C 602 38 403 460 288 1021 
C 269 1110 269 1117 218 1117 
C 166 1117 160 1110 160 983 
L 160 63 
C 160 -51 166 -58 205 -58 
C 237 -58 243 -51 275 0 
C 314 57 410 211 448 276 
C 576 103 800 -64 1158 -64 
C 1792 -64 2131 283 2131 784 
C 2131 1112 1958 1285 1875 1362 
C 1683 1561 1459 1606 1190 1657 
C 838 1735 390 1825 390 2217 
C 390 2383 480 2737 1126 2737 
C 1811 2737 1850 2094 1862 1888 
C 1869 1856 1901 1849 1920 1849 
C 1978 1849 1978 1869 1978 1978 
L 1978 2697 
z
" transform="scale(0.015625)"/>
      <path id="CMR17-69" d="M 992 3909 
C 992 4049 877 4170 730 4170 
C 589 4170 467 4056 467 3909 
C 467 3769 582 3648 730 3648 
C 870 3648 992 3763 992 3909 
z
M 243 2706 
L 243 2541 
C 602 2541 653 2502 653 2197 
L 653 427 
C 653 184 627 153 218 153 
L 218 -13 
C 371 0 646 0 806 0 
C 960 0 1222 0 1370 -13 
L 1370 153 
C 992 153 979 191 979 420 
L 979 2776 
L 243 2706 
z
" transform="scale(0.015625)"/>
      <path id="CMR17-6f" d="M 2758 1356 
C 2758 2176 2163 2816 1466 2816 
C 768 2816 173 2176 173 1356 
C 173 551 768 -64 1466 -64 
C 2163 -64 2758 551 2758 1356 
z
M 1466 51 
C 1165 51 909 230 762 480 
C 602 767 582 1126 582 1408 
C 582 1677 595 2010 762 2298 
C 890 2509 1139 2714 1466 2714 
C 1754 2714 1997 2554 2150 2330 
C 2349 2029 2349 1607 2349 1408 
C 2349 1158 2336 775 2163 467 
C 1984 173 1709 51 1466 51 
z
" transform="scale(0.015625)"/>
      <path id="CMR17-6e" d="M 2656 1933 
C 2656 2259 2592 2790 1837 2790 
C 1331 2790 1069 2400 973 2144 
L 966 2144 
L 966 2790 
L 211 2720 
L 211 2554 
C 589 2554 646 2515 646 2208 
L 646 428 
C 646 184 621 153 211 153 
L 211 -13 
C 365 0 646 0 813 0 
C 979 0 1267 0 1421 -13 
L 1421 153 
C 1011 153 986 178 986 428 
L 986 1658 
C 986 2247 1344 2688 1792 2688 
C 2266 2688 2317 2266 2317 1958 
L 2317 428 
C 2317 184 2291 153 1882 153 
L 1882 -13 
C 2035 0 2317 0 2483 0 
C 2650 0 2938 0 3091 -13 
L 3091 153 
C 2682 153 2656 178 2656 428 
L 2656 1933 
z
" transform="scale(0.015625)"/>
     </defs>
     <use xlink:href="#CMR17-28" transform="scale(0.996264)"/>
     <use xlink:href="#CMR17-24" transform="translate(35.280768 0) scale(0.996264)"/>
     <use xlink:href="#CMSY10-5" transform="translate(133.186418 0) scale(0.996264)"/>
     <use xlink:href="#CMMI12-44" transform="translate(235.214974 0) scale(0.996264)"/>
     <use xlink:href="#CMR17-29" transform="translate(318.918922 0) scale(0.996264)"/>
     <use xlink:href="#CMR17-3a" transform="translate(381.873699 0) scale(0.996264)"/>
     <use xlink:href="#CMR17-50" transform="translate(434.418766 0) scale(0.996264)"/>
     <use xlink:href="#CMR17-75" transform="translate(497.005066 0) scale(0.996264)"/>
     <use xlink:href="#CMR17-6c" transform="translate(547.900436 0) scale(0.996264)"/>
     <use xlink:href="#CMR17-73" transform="translate(572.771495 0) scale(0.996264)"/>
     <use xlink:href="#CMR17-69" transform="translate(608.572832 0) scale(0.996264)"/>
     <use xlink:href="#CMR17-6f" transform="translate(633.443891 0) scale(0.996264)"/>
     <use xlink:href="#CMR17-6e" transform="translate(679.134368 0) scale(0.996264)"/>
    </g>
   </g>
  </g>
 </g>
</svg>
