<?xml version="1.0" encoding="utf-8" standalone="no"?>
<!DOCTYPE svg PUBLIC "-//W3C//DTD SVG 1.1//EN"
  "http://www.w3.org/Graphics/SVG/1.1/DTD/svg11.dtd">
<svg xmlns:xlink="http://www.w3.org/1999/xlink" width="684pt" height="180.72pt" viewBox="0 0 684 180.72" xmlns="http://www.w3.org/2000/svg" version="1.1">
 <metadata>
  <rdf:RDF xmlns:dc="http://purl.org/dc/elements/1.1/" xmlns:cc="http://creativecommons.org/ns#" xmlns:rdf="http://www.w3.org/1999/02/22-rdf-syntax-ns#">
   <cc:Work>
    <dc:type rdf:resource="http://purl.org/dc/dcmitype/StillImage"/>
    <dc:date>2025-10-28T10:06:12.791436</dc:date>
    <dc:format>image/svg+xml</dc:format>
    <dc:creator>
     <cc:Agent>
      <dc:title>Matplotlib v3.10.7, https://matplotlib.org/</dc:title>
     </cc:Agent>
    </dc:creator>
   </cc:Work>
  </rdf:RDF>
 </metadata>
 <defs>
  <style type="text/css">*{stroke-linejoin: round; stroke-linecap: butt}</style>
 </defs>
 <g id="figure_1">
  <g id="patch_1">
   <path d="M 0 180.72 
L 684 180.72 
L 684 0 
L 0 0 
L 0 180.72 
z
" style="fill: none"/>
  </g>
  <g id="axes_1">
   <g id="text_1">
    <!-- $\langle \$ \ \diamond \ a(H) \rangle$ -->
    <g transform="translate(291.8 97.66) scale(0.2 -0.2)">
     <defs>
      <path id="Cmex10-ad" d="M 2272 -7347 
L 641 -3634 
Q 628 -3616 628 -3584 
Q 628 -3553 641 -3541 
L 2272 178 
Q 2303 256 2388 256 
Q 2434 256 2475 215 
Q 2516 175 2516 128 
Q 2516 97 2509 84 
L 897 -3584 
L 2509 -7250 
Q 2516 -7263 2516 -7297 
Q 2516 -7344 2475 -7384 
Q 2434 -7425 2388 -7425 
Q 2306 -7425 2272 -7347 
z
" transform="scale(0.015625)"/>
      <path id="Cmr10-24" d="M 1484 -359 
L 1484 -63 
Q 1144 -63 889 106 
Q 634 275 496 561 
Q 359 847 359 1178 
Q 359 1303 450 1393 
Q 541 1484 666 1484 
Q 791 1484 881 1393 
Q 972 1303 972 1178 
Q 972 1053 881 962 
Q 791 872 666 872 
L 659 872 
Q 616 872 594 878 
Q 588 881 583 882 
Q 578 884 575 884 
Q 619 681 755 512 
Q 891 344 1084 251 
Q 1278 159 1484 159 
L 1484 2028 
Q 1297 2081 1217 2106 
Q 1138 2131 1052 2172 
Q 966 2213 886 2266 
Q 806 2319 716 2406 
Q 359 2769 359 3272 
L 359 3278 
L 359 3284 
Q 359 3519 453 3742 
Q 547 3966 716 4147 
Q 850 4281 1072 4393 
Q 1294 4506 1484 4506 
L 1484 4800 
L 1709 4800 
L 1709 4513 
Q 2028 4513 2287 4361 
Q 2547 4209 2690 3945 
Q 2834 3681 2834 3353 
Q 2834 3228 2743 3137 
Q 2653 3047 2528 3047 
Q 2403 3047 2312 3137 
Q 2222 3228 2222 3353 
Q 2222 3478 2312 3568 
Q 2403 3659 2528 3659 
L 2534 3659 
Q 2578 3659 2597 3653 
L 2613 3653 
Q 2556 3844 2418 3984 
Q 2281 4125 2092 4203 
Q 1903 4281 1709 4281 
L 1709 2584 
Q 1972 2525 2137 2448 
Q 2303 2372 2450 2222 
Q 2638 2034 2736 1782 
Q 2834 1531 2834 1259 
L 2834 1247 
Q 2834 991 2742 747 
Q 2650 503 2478 319 
Q 2322 163 2108 50 
Q 1894 -63 1709 -63 
L 1709 -359 
L 1484 -359 
z
M 1709 159 
Q 1925 188 2104 320 
Q 2284 453 2384 653 
Q 2484 853 2484 1063 
Q 2484 1309 2387 1492 
Q 2291 1675 2117 1797 
Q 1944 1919 1709 1978 
L 1709 159 
z
M 1484 2644 
L 1484 4281 
Q 1288 4259 1105 4145 
Q 922 4031 815 3854 
Q 709 3678 709 3469 
Q 709 2847 1484 2644 
z
" transform="scale(0.015625)"/>
      <path id="Cmsy10-a6" d="M 1503 116 
L 103 1516 
Q 72 1553 72 1600 
Q 72 1644 103 1691 
L 1503 3091 
Q 1553 3128 1600 3128 
Q 1647 3128 1697 3091 
L 3097 1691 
Q 3128 1644 3128 1600 
Q 3128 1553 3097 1516 
L 1697 116 
Q 1653 72 1600 72 
Q 1547 72 1503 116 
z
M 1600 384 
L 2822 1600 
L 1600 2822 
L 384 1600 
L 1600 384 
z
" transform="scale(0.015625)"/>
      <path id="Cmmi10-61" d="M 1113 -72 
Q 709 -72 476 233 
Q 244 538 244 953 
Q 244 1363 456 1803 
Q 669 2244 1030 2536 
Q 1391 2828 1806 2828 
Q 1997 2828 2147 2725 
Q 2297 2622 2381 2444 
Q 2453 2700 2663 2700 
Q 2744 2700 2798 2651 
Q 2853 2603 2853 2522 
Q 2853 2503 2851 2493 
Q 2850 2484 2847 2472 
L 2400 684 
Q 2356 494 2356 372 
Q 2356 97 2541 97 
Q 2741 97 2845 351 
Q 2950 606 3022 941 
Q 3034 978 3072 978 
L 3150 978 
Q 3175 978 3190 956 
Q 3206 934 3206 916 
Q 3094 469 2961 198 
Q 2828 -72 2528 -72 
Q 2313 -72 2147 54 
Q 1981 181 1941 391 
Q 1528 -72 1113 -72 
z
M 1119 97 
Q 1350 97 1567 270 
Q 1784 444 1941 678 
Q 1947 684 1947 697 
L 2291 2088 
L 2297 2106 
Q 2259 2334 2132 2498 
Q 2006 2663 1791 2663 
Q 1575 2663 1389 2486 
Q 1203 2309 1075 2069 
Q 950 1813 836 1366 
Q 722 919 722 672 
Q 722 450 817 273 
Q 913 97 1119 97 
z
" transform="scale(0.015625)"/>
      <path id="Cmr10-28" d="M 1984 -1588 
Q 1628 -1306 1370 -942 
Q 1113 -578 948 -165 
Q 784 247 703 697 
Q 622 1147 622 1600 
Q 622 2059 703 2509 
Q 784 2959 951 3375 
Q 1119 3791 1378 4153 
Q 1638 4516 1984 4788 
Q 1984 4800 2016 4800 
L 2075 4800 
Q 2094 4800 2109 4783 
Q 2125 4766 2125 4744 
Q 2125 4716 2113 4703 
Q 1800 4397 1592 4047 
Q 1384 3697 1257 3301 
Q 1131 2906 1075 2482 
Q 1019 2059 1019 1600 
Q 1019 -434 2106 -1491 
Q 2125 -1509 2125 -1544 
Q 2125 -1559 2108 -1579 
Q 2091 -1600 2075 -1600 
L 2016 -1600 
Q 1984 -1600 1984 -1588 
z
" transform="scale(0.015625)"/>
      <path id="Cmmi10-48" d="M 300 0 
Q 238 0 238 84 
Q 241 100 250 139 
Q 259 178 276 201 
Q 294 225 319 225 
Q 709 225 863 269 
Q 947 297 984 441 
L 1863 3956 
Q 1875 4019 1875 4044 
Q 1875 4113 1797 4122 
Q 1678 4147 1338 4147 
Q 1275 4147 1275 4231 
Q 1297 4313 1309 4342 
Q 1322 4372 1381 4372 
L 3103 4372 
Q 3169 4372 3169 4288 
Q 3166 4272 3156 4234 
Q 3147 4197 3131 4172 
Q 3116 4147 3084 4147 
Q 2694 4147 2541 4103 
Q 2456 4072 2419 3928 
L 2034 2388 
L 3956 2388 
L 4347 3956 
Q 4359 4019 4359 4044 
Q 4359 4113 4281 4122 
Q 4159 4147 3822 4147 
Q 3756 4147 3756 4231 
Q 3778 4313 3790 4342 
Q 3803 4372 3866 4372 
L 5588 4372 
Q 5650 4372 5650 4288 
Q 5647 4272 5637 4233 
Q 5628 4194 5611 4170 
Q 5594 4147 5569 4147 
Q 5178 4147 5025 4103 
Q 4941 4075 4903 3928 
L 4025 416 
Q 4013 353 4013 325 
Q 4013 259 4091 250 
Q 4213 225 4550 225 
Q 4616 225 4616 141 
Q 4597 66 4578 33 
Q 4559 0 4506 0 
L 2784 0 
Q 2719 0 2719 84 
Q 2731 131 2737 153 
Q 2744 175 2761 200 
Q 2778 225 2803 225 
Q 3194 225 3347 269 
Q 3431 297 3469 441 
L 3897 2163 
L 1978 2163 
L 1544 416 
Q 1528 338 1528 325 
Q 1528 259 1606 250 
Q 1728 225 2069 225 
Q 2131 225 2131 141 
Q 2109 56 2095 28 
Q 2081 0 2022 0 
L 300 0 
z
" transform="scale(0.015625)"/>
      <path id="Cmr10-29" d="M 416 -1600 
Q 359 -1600 359 -1544 
Q 359 -1516 372 -1503 
Q 1466 -434 1466 1600 
Q 1466 3634 384 4691 
Q 359 4706 359 4744 
Q 359 4766 376 4783 
Q 394 4800 416 4800 
L 475 4800 
Q 494 4800 506 4788 
Q 966 4425 1272 3906 
Q 1578 3388 1720 2800 
Q 1863 2213 1863 1600 
Q 1863 1147 1786 708 
Q 1709 269 1542 -157 
Q 1375 -584 1119 -945 
Q 863 -1306 506 -1588 
Q 494 -1600 475 -1600 
L 416 -1600 
z
" transform="scale(0.015625)"/>
      <path id="Cmex10-ae" d="M 500 -7297 
Q 500 -7263 513 -7250 
L 2119 -3584 
L 513 84 
Q 500 97 500 128 
Q 500 175 537 215 
Q 575 256 628 256 
Q 703 256 750 178 
L 2381 -3541 
Q 2388 -3553 2388 -3584 
Q 2388 -3616 2381 -3634 
L 750 -7347 
Q 700 -7425 628 -7425 
Q 575 -7425 537 -7384 
Q 500 -7344 500 -7297 
z
" transform="scale(0.015625)"/>
     </defs>
     <use xlink:href="#Cmex10-ad" transform="translate(0 94)"/>
     <use xlink:href="#Cmr10-24" transform="translate(47.216797 0.658854)"/>
     <use xlink:href="#Cmsy10-a6" transform="translate(144.039421 0.658854)"/>
     <use xlink:href="#Cmmi10-61" transform="translate(240.862045 0.658854)"/>
     <use xlink:href="#Cmr10-28" transform="translate(293.645248 0.658854)"/>
     <use xlink:href="#Cmmi10-48" transform="translate(332.463607 0.658854)"/>
     <use xlink:href="#Cmr10-29" transform="translate(415.569076 0.658854)"/>
     <use xlink:href="#Cmex10-ae" transform="translate(454.387436 94)"/>
    </g>
   </g>
  </g>
 </g>
</svg>
