<?xml version="1.0" encoding="utf-8" standalone="no"?>
<!DOCTYPE svg PUBLIC "-//W3C//DTD SVG 1.1//EN"
  "http://www.w3.org/Graphics/SVG/1.1/DTD/svg11.dtd">
<svg xmlns:xlink="http://www.w3.org/1999/xlink" width="684pt" height="180.72pt" viewBox="0 0 684 180.72" xmlns="http://www.w3.org/2000/svg" version="1.1">
 <metadata>
  <rdf:RDF xmlns:dc="http://purl.org/dc/elements/1.1/" xmlns:cc="http://creativecommons.org/ns#" xmlns:rdf="http://www.w3.org/1999/02/22-rdf-syntax-ns#">
   <cc:Work>
    <dc:type rdf:resource="http://purl.org/dc/dcmitype/StillImage"/>
    <dc:date>2025-10-28T09:39:24.255919</dc:date>
    <dc:format>image/svg+xml</dc:format>
    <dc:creator>
     <cc:Agent>
      <dc:title>Matplotlib v3.10.7, https://matplotlib.org/</dc:title>
     </cc:Agent>
    </dc:creator>
   </cc:Work>
  </rdf:RDF>
 </metadata>
 <defs>
  <style type="text/css">*{stroke-linejoin: round; stroke-linecap: butt}</style>
 </defs>
 <g id="figure_1">
  <g id="patch_1">
   <path d="M 0 180.72 
L 684 180.72 
L 684 0 
L 0 0 
L 0 180.72 
z
" style="fill: none"/>
  </g>
  <g id="axes_1">
   <g id="text_1">
    <!-- $\langle \$ \; \Diamond \; a(\mathfrak{H}) \rangle$ -->
    <g transform="translate(304.74937 94.345056) scale(0.16 -0.16)">
     <defs>
      <path id="CMSY10-68" d="M 2099 4557 
C 2131 4627 2131 4640 2131 4672 
C 2131 4742 2074 4800 2003 4800 
C 1946 4800 1901 4768 1856 4653 
L 736 1715 
C 723 1677 704 1638 704 1600 
C 704 1581 704 1568 736 1491 
L 1856 -1446 
C 1882 -1517 1914 -1600 2003 -1600 
C 2074 -1600 2131 -1542 2131 -1472 
C 2131 -1453 2131 -1440 2099 -1370 
L 966 1600 
L 2099 4557 
z
" transform="scale(0.015625)"/>
      <path id="CMR17-24" d="M 1549 4327 
C 1901 4327 2381 4183 2502 3576 
C 2477 3589 2438 3595 2406 3595 
C 2323 3595 2176 3544 2176 3366 
C 2176 3206 2298 3136 2406 3136 
C 2541 3136 2637 3215 2637 3403 
C 2637 3939 2317 4480 1549 4480 
L 1549 4800 
L 1382 4800 
L 1382 4505 
C 749 4448 294 3936 294 3328 
C 294 2906 499 2637 602 2522 
C 838 2273 1011 2227 1382 2125 
L 1382 153 
C 1030 153 538 332 422 979 
C 448 967 493 960 525 960 
C 634 960 755 1031 755 1190 
C 755 1368 608 1419 525 1419 
C 416 1419 294 1368 294 1156 
C 294 514 685 0 1382 0 
L 1382 -320 
L 1549 -320 
L 1549 -13 
C 2214 45 2637 616 2637 1244 
C 2637 1408 2611 1771 2323 2107 
C 2086 2380 1837 2443 1549 2513 
L 1549 4327 
z
M 1382 2564 
C 1210 2602 979 2660 800 2846 
C 646 3013 550 3218 550 3455 
C 550 3840 838 4282 1382 4333 
L 1382 2564 
z
M 1549 2080 
C 1754 2035 1939 1979 2125 1782 
C 2214 1680 2381 1446 2381 1110 
C 2381 666 2067 204 1549 153 
L 1549 2080 
z
" transform="scale(0.015625)"/>
      <path id="wasy10-33" d="M 2603 4326 
C 2578 4352 2546 4365 2514 4365 
C 2482 4365 2443 4352 2424 4326 
L 370 2278 
C 344 2253 338 2214 338 2182 
C 338 2150 344 2118 370 2093 
L 2424 45 
C 2443 19 2482 6 2514 6 
C 2546 6 2578 19 2603 45 
L 4651 2093 
C 4677 2118 4690 2150 4690 2182 
C 4690 2214 4677 2253 4651 2278 
L 2603 4326 
z
M 645 2189 
L 2514 4051 
L 4383 2189 
L 2514 320 
L 645 2189 
z
" transform="scale(0.015625)"/>
      <path id="CMMI12-61" d="M 1926 760 
C 1894 651 1894 639 1805 517 
C 1664 338 1382 64 1082 64 
C 819 64 672 300 672 677 
C 672 1028 870 1743 992 2012 
C 1210 2459 1510 2689 1760 2689 
C 2182 2689 2266 2165 2266 2114 
C 2266 2108 2246 2024 2240 2012 
L 1926 760 
z
M 2336 2395 
C 2266 2561 2093 2816 1760 2816 
C 1037 2816 256 1884 256 939 
C 256 307 627 -64 1062 -64 
C 1414 -64 1715 211 1894 422 
C 1958 45 2259 -64 2451 -64 
C 2643 -64 2797 51 2912 281 
C 3014 498 3104 888 3104 913 
C 3104 945 3078 971 3040 971 
C 2982 971 2976 939 2950 843 
C 2854 466 2733 64 2470 64 
C 2285 64 2272 230 2272 358 
C 2272 505 2291 575 2349 824 
C 2394 984 2426 1124 2477 1309 
C 2714 2267 2771 2497 2771 2535 
C 2771 2625 2701 2695 2605 2695 
C 2400 2695 2349 2472 2336 2395 
z
" transform="scale(0.015625)"/>
      <path id="CMR17-28" d="M 1958 -1561 
C 1958 -1555 1958 -1542 1939 -1523 
C 1645 -1224 858 -407 858 1581 
C 858 3569 1632 4379 1946 4697 
C 1946 4704 1958 4717 1958 4736 
C 1958 4755 1939 4768 1914 4768 
C 1843 4768 1299 4296 986 3594 
C 666 2887 576 2199 576 1588 
C 576 1128 621 351 1005 -471 
C 1312 -1135 1837 -1600 1914 -1600 
C 1946 -1600 1958 -1587 1958 -1561 
z
" transform="scale(0.015625)"/>
      <path id="EUFM10-48" d="M 2355 -665 
C 2470 -781 2630 -832 2797 -832 
C 3040 -832 3526 -385 3853 -84 
C 4083 427 4128 989 4128 1545 
C 4128 1929 4058 2305 3955 2670 
C 3622 2919 3206 3008 2797 3008 
C 2374 2766 1978 2479 1638 2129 
C 1498 2422 1306 2831 1306 3081 
C 1306 3406 1440 3610 1619 3789 
C 1920 3635 2278 3456 2592 3456 
C 2797 3456 3226 3879 3501 4147 
L 3418 4243 
C 3078 3981 3008 3898 2867 3898 
C 2547 3898 2266 4064 2048 4282 
C 1517 3912 787 3338 787 2776 
C 787 2127 1434 1412 1434 863 
C 1421 703 1408 582 1280 422 
C 1152 575 915 768 710 768 
C 448 768 134 422 -51 88 
L 26 -2 
C 115 95 262 256 448 256 
C 634 256 851 75 1018 -80 
C 1133 16 1619 609 1818 878 
C 1875 953 1882 1094 1882 1203 
C 1882 1357 1837 1650 1702 1982 
C 1971 2300 2304 2599 2694 2599 
C 3270 2599 3578 2190 3578 1238 
C 3578 606 3597 -493 3034 -493 
C 2874 -493 2733 -396 2662 -254 
L 2355 -665 
z
" transform="scale(0.015625)"/>
      <path id="CMR17-29" d="M 1683 1581 
C 1683 2040 1638 2817 1254 3639 
C 947 4303 422 4768 346 4768 
C 326 4768 301 4761 301 4729 
C 301 4717 307 4710 314 4697 
C 621 4378 1402 3568 1402 1584 
C 1402 -407 627 -1217 314 -1537 
C 307 -1549 301 -1556 301 -1568 
C 301 -1600 326 -1600 346 -1600 
C 416 -1600 960 -1128 1274 -426 
C 1594 281 1683 969 1683 1581 
z
" transform="scale(0.015625)"/>
      <path id="CMSY10-69" d="M 1747 1491 
C 1779 1568 1779 1581 1779 1600 
C 1779 1619 1779 1632 1747 1709 
L 627 4653 
C 589 4762 550 4800 480 4800 
C 410 4800 352 4742 352 4672 
C 352 4653 352 4640 384 4570 
L 1517 1600 
L 384 -1357 
C 352 -1427 352 -1440 352 -1472 
C 352 -1542 410 -1600 480 -1600 
C 563 -1600 589 -1536 614 -1472 
L 1747 1491 
z
" transform="scale(0.015625)"/>
     </defs>
     <use xlink:href="#CMSY10-68" transform="scale(0.996264)"/>
     <use xlink:href="#CMR17-24" transform="translate(38.743734 0) scale(0.996264)"/>
     <use xlink:href="#wasy10-33" transform="translate(112.10822 0) scale(0.247871)"/>
     <use xlink:href="#CMMI12-61" transform="translate(159.405495 0) scale(0.996264)"/>
     <use xlink:href="#CMR17-28" transform="translate(210.613352 0) scale(0.996264)"/>
     <use xlink:href="#EUFM10-48" transform="translate(245.89412 0) scale(0.996264)"/>
     <use xlink:href="#CMR17-29" transform="translate(317.655456 0) scale(0.996264)"/>
     <use xlink:href="#CMSY10-69" transform="translate(352.936224 0) scale(0.996264)"/>
    </g>
   </g>
  </g>
 </g>
</svg>
