<?xml version="1.0" encoding="utf-8" standalone="no"?>
<!DOCTYPE svg PUBLIC "-//W3C//DTD SVG 1.1//EN"
  "http://www.w3.org/Graphics/SVG/1.1/DTD/svg11.dtd">
<svg xmlns:xlink="http://www.w3.org/1999/xlink" width="684pt" height="180.72pt" viewBox="0 0 684 180.72" xmlns="http://www.w3.org/2000/svg" version="1.1">
 <metadata>
  <rdf:RDF xmlns:dc="http://purl.org/dc/elements/1.1/" xmlns:cc="http://creativecommons.org/ns#" xmlns:rdf="http://www.w3.org/1999/02/22-rdf-syntax-ns#">
   <cc:Work>
    <dc:type rdf:resource="http://purl.org/dc/dcmitype/StillImage"/>
    <dc:date>2025-10-28T09:39:31.778688</dc:date>
    <dc:format>image/svg+xml</dc:format>
    <dc:creator>
     <cc:Agent>
      <dc:title>Matplotlib v3.10.7, https://matplotlib.org/</dc:title>
     </cc:Agent>
    </dc:creator>
   </cc:Work>
  </rdf:RDF>
 </metadata>
 <defs>
  <style type="text/css">*{stroke-linejoin: round; stroke-linecap: butt}</style>
 </defs>
 <g id="figure_1">
  <g id="patch_1">
   <path d="M 0 180.72 
L 684 180.72 
L 684 0 
L 0 0 
L 0 180.72 
z
" style="fill: none"/>
  </g>
  <g id="axes_1">
   <g id="text_1">
    <!-- $a = f(\mathscr{J}, \varnothing)$ -->
    <g transform="translate(296.239709 93.994381) scale(0.16 -0.16)">
     <defs>
      <path id="CMMI12-61" d="M 1926 760 
C 1894 651 1894 639 1805 517 
C 1664 338 1382 64 1082 64 
C 819 64 672 300 672 677 
C 672 1028 870 1743 992 2012 
C 1210 2459 1510 2689 1760 2689 
C 2182 2689 2266 2165 2266 2114 
C 2266 2108 2246 2024 2240 2012 
L 1926 760 
z
M 2336 2395 
C 2266 2561 2093 2816 1760 2816 
C 1037 2816 256 1884 256 939 
C 256 307 627 -64 1062 -64 
C 1414 -64 1715 211 1894 422 
C 1958 45 2259 -64 2451 -64 
C 2643 -64 2797 51 2912 281 
C 3014 498 3104 888 3104 913 
C 3104 945 3078 971 3040 971 
C 2982 971 2976 939 2950 843 
C 2854 466 2733 64 2470 64 
C 2285 64 2272 230 2272 358 
C 2272 505 2291 575 2349 824 
C 2394 984 2426 1124 2477 1309 
C 2714 2267 2771 2497 2771 2535 
C 2771 2625 2701 2695 2605 2695 
C 2400 2695 2349 2472 2336 2395 
z
" transform="scale(0.015625)"/>
      <path id="CMR17-3d" d="M 4115 2017 
C 4211 2017 4307 2017 4307 2125 
C 4307 2240 4198 2240 4090 2240 
L 512 2240 
C 403 2240 294 2240 294 2125 
C 294 2017 390 2017 486 2017 
L 4115 2017 
z
M 4090 896 
C 4198 896 4307 896 4307 1011 
C 4307 1119 4211 1119 4115 1119 
L 486 1119 
C 390 1119 294 1119 294 1011 
C 294 896 403 896 512 896 
L 4090 896 
z
" transform="scale(0.015625)"/>
      <path id="CMMI12-66" d="M 2854 2566 
C 2982 2566 3034 2566 3034 2688 
C 3034 2752 2982 2752 2867 2752 
L 2349 2752 
C 2470 3429 2560 3897 2611 4107 
C 2650 4265 2784 4416 2950 4416 
C 3085 4416 3219 4358 3283 4298 
C 3034 4272 2957 4082 2957 3969 
C 2957 3837 3053 3759 3174 3759 
C 3302 3759 3494 3870 3494 4119 
C 3494 4393 3226 4544 2944 4544 
C 2669 4544 2400 4334 2272 4078 
C 2157 3848 2093 3611 1946 2752 
L 1517 2752 
C 1395 2752 1331 2752 1331 2637 
C 1331 2566 1370 2566 1498 2566 
L 1907 2566 
C 1792 1976 1530 542 1382 -137 
C 1274 -689 1178 -1152 858 -1152 
C 838 -1152 653 -1152 538 -1031 
C 864 -1005 864 -726 864 -720 
C 864 -593 768 -517 646 -517 
C 518 -517 326 -625 326 -867 
C 326 -1140 608 -1280 858 -1280 
C 1510 -1280 1779 -118 1850 199 
C 1965 688 2278 2376 2310 2566 
L 2854 2566 
z
" transform="scale(0.015625)"/>
      <path id="CMR17-28" d="M 1958 -1561 
C 1958 -1555 1958 -1542 1939 -1523 
C 1645 -1224 858 -407 858 1581 
C 858 3569 1632 4379 1946 4697 
C 1946 4704 1958 4717 1958 4736 
C 1958 4755 1939 4768 1914 4768 
C 1843 4768 1299 4296 986 3594 
C 666 2887 576 2199 576 1588 
C 576 1128 621 351 1005 -471 
C 1312 -1135 1837 -1600 1914 -1600 
C 1946 -1600 1958 -1587 1958 -1561 
z
" transform="scale(0.015625)"/>
      <path id="rsfs10-4a" d="M 5350 3038 
C 5030 2585 4755 2132 4461 1679 
C 4262 1750 4134 1870 4090 2043 
C 4077 2088 4070 2138 4070 2189 
C 4070 2444 4211 2770 4454 3108 
C 4877 3708 5626 3931 6374 4160 
C 6458 4186 6541 4211 6618 4237 
C 6112 3899 5664 3478 5350 3038 
z
M 5690 2975 
C 6067 3510 6630 4034 7270 4435 
C 7283 4442 7290 4461 7290 4480 
L 7283 4531 
C 7277 4538 7277 4544 7277 4550 
C 7270 4576 7245 4589 7226 4589 
C 7219 4589 7213 4589 7206 4582 
C 6054 4128 4813 4128 4115 3155 
C 3891 2839 3776 2530 3776 2265 
C 3776 2164 3795 2069 3827 1987 
C 3917 1760 4109 1614 4371 1545 
C 4288 1417 4198 1288 4109 1160 
C 3866 813 3622 473 3360 127 
C 3277 114 3200 95 3123 75 
C 2317 -104 1222 -348 864 -855 
C 710 -1067 627 -1285 627 -1471 
C 627 -1516 634 -1554 640 -1593 
C 698 -1805 890 -1920 1158 -1920 
C 1645 -1920 2259 -1465 2765 -1028 
C 3187 -663 3565 -271 3904 120 
C 4531 287 5152 511 5402 869 
C 5408 882 5414 888 5414 901 
C 5414 933 5389 952 5357 952 
L 5344 952 
C 5325 952 5306 946 5299 933 
C 5101 658 4608 459 4058 306 
C 4275 569 4474 832 4659 1095 
C 4755 1230 4832 1365 4902 1493 
C 5094 1512 5312 1583 5523 1705 
C 5760 1833 5984 2020 6125 2218 
C 6310 2481 6355 2719 6355 2930 
C 6355 3007 6349 3085 6342 3155 
C 6336 3181 6317 3200 6291 3200 
L 6278 3200 
C 6259 3200 6240 3187 6221 3181 
C 6202 3168 6189 3149 6189 3123 
C 6195 3072 6202 3021 6202 2969 
C 6202 2764 6144 2533 5965 2283 
C 5843 2109 5658 1936 5446 1814 
C 5286 1724 5126 1667 4986 1647 
C 5210 2088 5370 2528 5690 2975 
z
M 6221 3168 
C 6208 3162 6202 3155 6202 3155 
C 6202 3155 6208 3155 6221 3168 
z
M 1178 -1779 
C 947 -1779 806 -1690 768 -1541 
C 762 -1516 755 -1477 755 -1445 
C 755 -1298 826 -1118 966 -920 
C 1274 -489 2298 -252 3142 -59 
L 3226 -40 
C 2982 -342 2726 -637 2432 -932 
C 2010 -1349 1549 -1779 1178 -1779 
z
" transform="scale(0.015625)"/>
      <path id="CMMI12-3b" d="M 1248 -31 
C 1248 343 1126 619 864 619 
C 659 619 557 453 557 313 
C 557 172 653 0 870 0 
C 954 0 1024 26 1082 83 
C 1094 96 1101 96 1107 96 
C 1120 96 1120 5 1120 -27 
C 1120 -240 1082 -659 710 -1080 
C 640 -1157 640 -1170 640 -1183 
C 640 -1216 672 -1248 704 -1248 
C 755 -1248 1248 -771 1248 -31 
z
" transform="scale(0.015625)"/>
      <path id="MSBM10-3f" d="M 4526 3462 
C 4616 3539 4616 3576 4616 3602 
C 4616 3724 4501 3730 4488 3730 
C 4443 3730 4424 3717 4309 3615 
L 3816 3188 
C 3681 3328 3207 3730 2490 3730 
C 1466 3730 608 2921 608 1864 
C 608 1265 858 915 986 731 
C 883 635 877 629 499 304 
C 371 190 358 177 358 119 
C 358 42 410 -9 486 -9 
C 531 -9 544 -9 659 100 
L 1159 533 
C 1216 469 1690 -9 2484 -9 
C 3572 -9 4366 869 4366 1856 
C 4366 2449 4110 2818 3989 2990 
C 3995 2996 4033 3028 4059 3054 
L 4526 3462 
z
M 1178 885 
C 864 1327 864 1711 864 1851 
C 864 2773 1600 3474 2484 3474 
C 3169 3474 3553 3087 3617 3016 
L 1178 885 
z
M 3790 2836 
C 4001 2555 4110 2235 4110 1870 
C 4110 948 3374 247 2490 247 
C 1805 247 1421 635 1357 705 
L 3790 2836 
z
" transform="scale(0.015625)"/>
      <path id="CMR17-29" d="M 1683 1581 
C 1683 2040 1638 2817 1254 3639 
C 947 4303 422 4768 346 4768 
C 326 4768 301 4761 301 4729 
C 301 4717 307 4710 314 4697 
C 621 4378 1402 3568 1402 1584 
C 1402 -407 627 -1217 314 -1537 
C 307 -1549 301 -1556 301 -1568 
C 301 -1600 326 -1600 346 -1600 
C 416 -1600 960 -1128 1274 -426 
C 1594 281 1683 969 1683 1581 
z
" transform="scale(0.015625)"/>
     </defs>
     <use xlink:href="#CMMI12-61" transform="scale(0.996264)"/>
     <use xlink:href="#CMR17-3d" transform="translate(78.881866 0) scale(0.996264)"/>
     <use xlink:href="#CMMI12-66" transform="translate(178.270663 0) scale(0.996264)"/>
     <use xlink:href="#CMR17-28" transform="translate(236.990968 0) scale(0.996264)"/>
     <use xlink:href="#rsfs10-4a" transform="translate(272.271736 0) scale(0.247871)"/>
     <use xlink:href="#CMMI12-3b" transform="translate(303.094034 0) scale(0.996264)"/>
     <use xlink:href="#MSBM10-3f" transform="translate(346.795616 0) scale(0.996264)"/>
     <use xlink:href="#CMR17-29" transform="translate(424.283084 0) scale(0.996264)"/>
    </g>
   </g>
  </g>
 </g>
</svg>
