<?xml version="1.0" encoding="utf-8" standalone="no"?>
<!DOCTYPE svg PUBLIC "-//W3C//DTD SVG 1.1//EN"
  "http://www.w3.org/Graphics/SVG/1.1/DTD/svg11.dtd">
<svg xmlns:xlink="http://www.w3.org/1999/xlink" width="684pt" height="180.72pt" viewBox="0 0 684 180.72" xmlns="http://www.w3.org/2000/svg" version="1.1">
 <metadata>
  <rdf:RDF xmlns:dc="http://purl.org/dc/elements/1.1/" xmlns:cc="http://creativecommons.org/ns#" xmlns:rdf="http://www.w3.org/1999/02/22-rdf-syntax-ns#">
   <cc:Work>
    <dc:type rdf:resource="http://purl.org/dc/dcmitype/StillImage"/>
    <dc:date>2025-10-28T10:53:36.270385</dc:date>
    <dc:format>image/svg+xml</dc:format>
    <dc:creator>
     <cc:Agent>
      <dc:title>Matplotlib v3.10.7, https://matplotlib.org/</dc:title>
     </cc:Agent>
    </dc:creator>
   </cc:Work>
  </rdf:RDF>
 </metadata>
 <defs>
  <style type="text/css">*{stroke-linejoin: round; stroke-linecap: butt}</style>
 </defs>
 <g id="figure_1">
  <g id="patch_1">
   <path d="M 0 180.72 
L 684 180.72 
L 684 0 
L 0 0 
L 0 180.72 
z
" style="fill: none"/>
  </g>
  <g id="axes_1">
   <g id="text_1">
    <!-- $\mathcal{J}_O = \infty \cdot \varnothing$ -->
    <g transform="translate(301.515502 94.345056) scale(0.16 -0.16)">
     <defs>
      <path id="CMSY10-4a" d="M 3936 4352 
C 3322 4352 2790 4059 2496 3848 
C 1798 3349 1722 2813 1722 2800 
C 1722 2755 1760 2755 1786 2755 
C 1933 2755 2221 2934 2259 3049 
C 2470 3726 2931 4000 3558 4000 
L 4410 4000 
C 3706 3439 3411 2476 2989 816 
C 2835 222 2445 -416 1798 -416 
C 1299 -416 845 -84 845 471 
C 845 599 877 707 877 732 
C 877 752 870 790 813 790 
C 774 790 627 758 448 624 
C 371 567 301 503 301 203 
C 301 -385 749 -768 1376 -768 
C 1920 -768 2438 -461 2752 -194 
C 3341 311 3456 777 3571 1231 
C 3808 2156 4115 3317 4595 3853 
C 4698 3968 4723 3987 4870 4000 
C 5158 4000 5376 4232 5376 4307 
C 5376 4346 5370 4352 5229 4352 
L 3936 4352 
z
" transform="scale(0.015625)"/>
      <path id="CMMI12-4f" d="M 4646 2797 
C 4646 3848 3955 4492 3059 4492 
C 1690 4492 307 3026 307 1554 
C 307 554 973 -128 1901 -128 
C 3245 -128 4646 1268 4646 2797 
z
M 1939 19 
C 1414 19 858 401 858 1395 
C 858 1974 1069 2924 1594 3562 
C 2061 4123 2598 4352 3027 4352 
C 3590 4352 4134 3944 4134 3026 
C 4134 2459 3891 1573 3462 968 
C 2995 318 2413 19 1939 19 
z
" transform="scale(0.015625)"/>
      <path id="CMR17-3d" d="M 4115 2017 
C 4211 2017 4307 2017 4307 2125 
C 4307 2240 4198 2240 4090 2240 
L 512 2240 
C 403 2240 294 2240 294 2125 
C 294 2017 390 2017 486 2017 
L 4115 2017 
z
M 4090 896 
C 4198 896 4307 896 4307 1011 
C 4307 1119 4211 1119 4115 1119 
L 486 1119 
C 390 1119 294 1119 294 1011 
C 294 896 403 896 512 896 
L 4090 896 
z
" transform="scale(0.015625)"/>
      <path id="CMSY10-31" d="M 3251 1730 
C 2906 2166 2829 2262 2630 2422 
C 2272 2710 1914 2825 1587 2825 
C 838 2825 352 2122 352 1374 
C 352 639 826 -70 1562 -70 
C 2298 -70 2829 511 3142 1022 
C 3488 588 3565 492 3763 332 
C 4122 45 4480 -70 4806 -70 
C 5555 -70 6042 633 6042 1380 
C 6042 2115 5568 2825 4832 2825 
C 4096 2825 3565 2242 3251 1730 
z
M 3418 1514 
C 3680 1975 4154 2620 4877 2620 
C 5555 2620 5901 1955 5901 1380 
C 5901 753 5472 236 4909 236 
C 4538 236 4250 505 4115 638 
C 3955 811 3808 1009 3418 1514 
z
M 2976 1240 
C 2714 780 2240 134 1517 134 
C 838 134 493 799 493 1374 
C 493 2000 922 2518 1485 2518 
C 1856 2518 2144 2249 2278 2115 
C 2438 1943 2586 1744 2976 1240 
z
" transform="scale(0.015625)"/>
      <path id="CMSY10-1" d="M 1229 1619 
C 1229 1805 1075 1958 890 1958 
C 704 1958 550 1805 550 1619 
C 550 1433 704 1280 890 1280 
C 1075 1280 1229 1433 1229 1619 
z
" transform="scale(0.015625)"/>
      <path id="MSBM10-3f" d="M 4526 3462 
C 4616 3539 4616 3576 4616 3602 
C 4616 3724 4501 3730 4488 3730 
C 4443 3730 4424 3717 4309 3615 
L 3816 3188 
C 3681 3328 3207 3730 2490 3730 
C 1466 3730 608 2921 608 1864 
C 608 1265 858 915 986 731 
C 883 635 877 629 499 304 
C 371 190 358 177 358 119 
C 358 42 410 -9 486 -9 
C 531 -9 544 -9 659 100 
L 1159 533 
C 1216 469 1690 -9 2484 -9 
C 3572 -9 4366 869 4366 1856 
C 4366 2449 4110 2818 3989 2990 
C 3995 2996 4033 3028 4059 3054 
L 4526 3462 
z
M 1178 885 
C 864 1327 864 1711 864 1851 
C 864 2773 1600 3474 2484 3474 
C 3169 3474 3553 3087 3617 3016 
L 1178 885 
z
M 3790 2836 
C 4001 2555 4110 2235 4110 1870 
C 4110 948 3374 247 2490 247 
C 1805 247 1421 635 1357 705 
L 3790 2836 
z
" transform="scale(0.015625)"/>
     </defs>
     <use xlink:href="#CMSY10-4a" transform="scale(0.996264)"/>
     <use xlink:href="#CMMI12-4f" transform="translate(67.524797 -14.943915) scale(0.697382)"/>
     <use xlink:href="#CMR17-3d" transform="translate(149.778966 0) scale(0.996264)"/>
     <use xlink:href="#CMSY10-31" transform="translate(249.167763 0) scale(0.996264)"/>
     <use xlink:href="#CMSY10-1" transform="translate(370.933645 0) scale(0.996264)"/>
     <use xlink:href="#MSBM10-3f" transform="translate(420.746937 0) scale(0.996264)"/>
    </g>
   </g>
  </g>
 </g>
</svg>
