<?xml version="1.0" encoding="utf-8" standalone="no"?>
<!DOCTYPE svg PUBLIC "-//W3C//DTD SVG 1.1//EN"
  "http://www.w3.org/Graphics/SVG/1.1/DTD/svg11.dtd">
<svg xmlns:xlink="http://www.w3.org/1999/xlink" width="684pt" height="180.72pt" viewBox="0 0 684 180.72" xmlns="http://www.w3.org/2000/svg" version="1.1">
 <metadata>
  <rdf:RDF xmlns:dc="http://purl.org/dc/elements/1.1/" xmlns:cc="http://creativecommons.org/ns#" xmlns:rdf="http://www.w3.org/1999/02/22-rdf-syntax-ns#">
   <cc:Work>
    <dc:type rdf:resource="http://purl.org/dc/dcmitype/StillImage"/>
    <dc:date>2025-10-28T10:53:36.115957</dc:date>
    <dc:format>image/svg+xml</dc:format>
    <dc:creator>
     <cc:Agent>
      <dc:title>Matplotlib v3.10.7, https://matplotlib.org/</dc:title>
     </cc:Agent>
    </dc:creator>
   </cc:Work>
  </rdf:RDF>
 </metadata>
 <defs>
  <style type="text/css">*{stroke-linejoin: round; stroke-linecap: butt}</style>
 </defs>
 <g id="figure_1">
  <g id="patch_1">
   <path d="M 0 180.72 
L 684 180.72 
L 684 0 
L 0 0 
L 0 180.72 
z
" style="fill: none"/>
  </g>
  <g id="axes_1">
   <g id="text_1">
    <!-- $\mathcal{J}_{\phi} = \Phi \cdot S(\not A)$ -->
    <g transform="translate(291.737306 94.057256) scale(0.16 -0.16)">
     <defs>
      <path id="CMSY10-4a" d="M 3936 4352 
C 3322 4352 2790 4059 2496 3848 
C 1798 3349 1722 2813 1722 2800 
C 1722 2755 1760 2755 1786 2755 
C 1933 2755 2221 2934 2259 3049 
C 2470 3726 2931 4000 3558 4000 
L 4410 4000 
C 3706 3439 3411 2476 2989 816 
C 2835 222 2445 -416 1798 -416 
C 1299 -416 845 -84 845 471 
C 845 599 877 707 877 732 
C 877 752 870 790 813 790 
C 774 790 627 758 448 624 
C 371 567 301 503 301 203 
C 301 -385 749 -768 1376 -768 
C 1920 -768 2438 -461 2752 -194 
C 3341 311 3456 777 3571 1231 
C 3808 2156 4115 3317 4595 3853 
C 4698 3968 4723 3987 4870 4000 
C 5158 4000 5376 4232 5376 4307 
C 5376 4346 5370 4352 5229 4352 
L 3936 4352 
z
" transform="scale(0.015625)"/>
      <path id="CMMI12-1e" d="M 2752 4390 
C 2752 4448 2707 4448 2688 4448 
C 2630 4448 2624 4435 2598 4326 
L 2253 2939 
C 2234 2856 2227 2849 2221 2843 
C 2214 2830 2170 2824 2157 2824 
C 1107 2734 301 1864 301 1057 
C 301 361 832 -64 1498 -64 
C 1446 -261 1402 -463 1350 -659 
C 1261 -995 1210 -1204 1210 -1229 
C 1210 -1241 1210 -1280 1274 -1280 
C 1293 -1280 1318 -1280 1331 -1254 
C 1344 -1241 1382 -1089 1408 -1008 
L 1645 -64 
C 2739 -64 3571 854 3571 1680 
C 3571 2343 3085 2816 2374 2816 
L 2752 4390 
z
M 2336 2701 
C 2758 2701 3181 2463 3181 1828 
C 3181 1097 2675 128 1677 50 
L 2336 2701 
z
M 1530 50 
C 1216 50 691 220 691 938 
C 691 1761 1274 2676 2195 2676 
L 1530 50 
z
" transform="scale(0.015625)"/>
      <path id="CMR17-3d" d="M 4115 2017 
C 4211 2017 4307 2017 4307 2125 
C 4307 2240 4198 2240 4090 2240 
L 512 2240 
C 403 2240 294 2240 294 2125 
C 294 2017 390 2017 486 2017 
L 4115 2017 
z
M 4090 896 
C 4198 896 4307 896 4307 1011 
C 4307 1119 4211 1119 4115 1119 
L 486 1119 
C 390 1119 294 1119 294 1011 
C 294 896 403 896 512 896 
L 4090 896 
z
" transform="scale(0.015625)"/>
      <path id="CMR17-8" d="M 2330 818 
C 3366 907 3974 1553 3974 2172 
C 3974 2818 3341 3444 2330 3534 
L 2330 3897 
C 2330 4128 2342 4192 2829 4192 
L 2970 4192 
L 2970 4352 
C 2707 4352 2400 4352 2131 4352 
C 1862 4352 1549 4352 1286 4352 
L 1286 4192 
L 1427 4192 
C 1914 4192 1926 4128 1926 3897 
L 1926 3534 
C 922 3444 294 2811 294 2179 
C 294 1521 947 907 1926 818 
L 1926 454 
C 1926 224 1914 160 1427 160 
L 1286 160 
L 1286 0 
C 1549 0 1862 0 2131 0 
C 2400 0 2707 0 2970 0 
L 2970 160 
L 2829 160 
C 2342 160 2330 224 2330 454 
L 2330 818 
z
M 1926 927 
C 1350 991 768 1323 768 2173 
C 768 3048 1370 3367 1926 3425 
L 1926 927 
z
M 2330 3425 
C 2835 3380 3501 3093 3501 2179 
C 3501 1240 2810 972 2330 927 
L 2330 3425 
z
" transform="scale(0.015625)"/>
      <path id="CMSY10-1" d="M 1229 1619 
C 1229 1805 1075 1958 890 1958 
C 704 1958 550 1805 550 1619 
C 550 1433 704 1280 890 1280 
C 1075 1280 1229 1433 1229 1619 
z
" transform="scale(0.015625)"/>
      <path id="CMMI12-53" d="M 4064 4423 
C 4064 4480 4019 4480 4006 4480 
C 3981 4480 3974 4474 3898 4378 
C 3859 4333 3597 4001 3590 3995 
C 3379 4410 2957 4480 2688 4480 
C 1875 4480 1139 3743 1139 3025 
C 1139 2549 1427 2269 1741 2161 
C 1811 2135 2189 2033 2381 1989 
C 2707 1900 2790 1875 2925 1735 
C 2950 1703 3078 1557 3078 1258 
C 3078 667 2528 57 1888 57 
C 1363 57 781 280 781 991 
C 781 1112 806 1265 826 1328 
C 826 1348 832 1378 832 1391 
C 832 1417 819 1449 768 1449 
C 710 1449 704 1436 678 1328 
L 352 24 
C 352 18 326 -64 326 -71 
C 326 -128 378 -128 390 -128 
C 416 -128 422 -122 499 -26 
L 794 356 
C 947 126 1280 -128 1875 -128 
C 2701 -128 3456 666 3456 1460 
C 3456 1728 3392 1963 3149 2197 
C 3014 2331 2899 2363 2310 2516 
C 1882 2630 1824 2649 1709 2751 
C 1600 2858 1517 3011 1517 3227 
C 1517 3761 2061 4308 2669 4308 
C 3296 4308 3590 3926 3590 3323 
C 3590 3158 3558 2986 3558 2961 
C 3558 2903 3610 2903 3629 2903 
C 3686 2903 3693 2922 3718 3024 
L 4064 4423 
z
" transform="scale(0.015625)"/>
      <path id="CMR17-28" d="M 1958 -1561 
C 1958 -1555 1958 -1542 1939 -1523 
C 1645 -1224 858 -407 858 1581 
C 858 3569 1632 4379 1946 4697 
C 1946 4704 1958 4717 1958 4736 
C 1958 4755 1939 4768 1914 4768 
C 1843 4768 1299 4296 986 3594 
C 666 2887 576 2199 576 1588 
C 576 1128 621 351 1005 -471 
C 1312 -1135 1837 -1600 1914 -1600 
C 1946 -1600 1958 -1587 1958 -1561 
z
" transform="scale(0.015625)"/>
      <path id="CMSY10-36" d="M 4032 4333 
C 4083 4422 4083 4435 4083 4454 
C 4083 4499 4045 4582 3955 4582 
C 3878 4582 3859 4544 3814 4454 
L 941 -1133 
C 890 -1222 890 -1235 890 -1254 
C 890 -1306 934 -1382 1018 -1382 
C 1094 -1382 1114 -1344 1158 -1254 
L 4032 4333 
z
" transform="scale(0.015625)"/>
      <path id="CMMI12-41" d="M 1088 691 
C 864 314 646 186 339 186 
C 269 180 218 180 218 58 
C 218 24 250 0 294 0 
C 410 0 698 0 813 0 
C 998 0 1203 0 1382 0 
C 1421 0 1498 0 1498 122 
C 1498 180 1446 186 1408 186 
C 1261 186 1139 236 1139 388 
C 1139 476 1178 546 1261 685 
L 1747 1479 
L 3379 1479 
C 3386 1423 3386 1373 3392 1316 
C 3411 1152 3488 495 3488 376 
C 3488 186 3162 186 3059 186 
C 2989 186 2918 186 2918 70 
C 2918 0 2976 0 3014 0 
C 3123 0 3251 0 3360 0 
L 3725 0 
C 4115 0 4397 0 4403 0 
C 4448 0 4518 0 4518 122 
C 4518 186 4461 186 4365 186 
C 4013 186 4006 244 3987 434 
L 3597 4404 
C 3584 4531 3558 4544 3488 4544 
C 3424 4544 3386 4531 3328 4435 
L 1088 691 
z
M 1856 1664 
L 3142 3819 
L 3360 1664 
L 1856 1664 
z
" transform="scale(0.015625)"/>
      <path id="CMR17-29" d="M 1683 1581 
C 1683 2040 1638 2817 1254 3639 
C 947 4303 422 4768 346 4768 
C 326 4768 301 4761 301 4729 
C 301 4717 307 4710 314 4697 
C 621 4378 1402 3568 1402 1584 
C 1402 -407 627 -1217 314 -1537 
C 307 -1549 301 -1556 301 -1568 
C 301 -1600 326 -1600 346 -1600 
C 416 -1600 960 -1128 1274 -426 
C 1594 281 1683 969 1683 1581 
z
" transform="scale(0.015625)"/>
     </defs>
     <use xlink:href="#CMSY10-4a" transform="scale(0.996264)"/>
     <use xlink:href="#CMMI12-1e" transform="translate(67.524797 -14.943915) scale(0.697382)"/>
     <use xlink:href="#CMR17-3d" transform="translate(136.110679 0) scale(0.996264)"/>
     <use xlink:href="#CMR17-8" transform="translate(235.499476 0) scale(0.996264)"/>
     <use xlink:href="#CMSY10-1" transform="translate(324.148563 0) scale(0.996264)"/>
     <use xlink:href="#CMMI12-53" transform="translate(373.961855 0) scale(0.996264)"/>
     <use xlink:href="#CMR17-28" transform="translate(439.756294 0) scale(0.996264)"/>
     <use xlink:href="#CMSY10-36" transform="translate(475.037062 0) scale(0.996264)"/>
     <use xlink:href="#CMMI12-41" transform="translate(502.711071 0) scale(0.996264)"/>
     <use xlink:href="#CMR17-29" transform="translate(575.838956 0) scale(0.996264)"/>
    </g>
   </g>
  </g>
 </g>
</svg>
