<?xml version="1.0" encoding="utf-8" standalone="no"?>
<!DOCTYPE svg PUBLIC "-//W3C//DTD SVG 1.1//EN"
  "http://www.w3.org/Graphics/SVG/1.1/DTD/svg11.dtd">
<svg xmlns:xlink="http://www.w3.org/1999/xlink" width="684pt" height="180.72pt" viewBox="0 0 684 180.72" xmlns="http://www.w3.org/2000/svg" version="1.1">
 <metadata>
  <rdf:RDF xmlns:dc="http://purl.org/dc/elements/1.1/" xmlns:cc="http://creativecommons.org/ns#" xmlns:rdf="http://www.w3.org/1999/02/22-rdf-syntax-ns#">
   <cc:Work>
    <dc:type rdf:resource="http://purl.org/dc/dcmitype/StillImage"/>
    <dc:date>2025-10-28T10:37:25.367584</dc:date>
    <dc:format>image/svg+xml</dc:format>
    <dc:creator>
     <cc:Agent>
      <dc:title>Matplotlib v3.10.7, https://matplotlib.org/</dc:title>
     </cc:Agent>
    </dc:creator>
   </cc:Work>
  </rdf:RDF>
 </metadata>
 <defs>
  <style type="text/css">*{stroke-linejoin: round; stroke-linecap: butt}</style>
 </defs>
 <g id="figure_1">
  <g id="patch_1">
   <path d="M 0 180.72 
L 684 180.72 
L 684 0 
L 0 0 
L 0 180.72 
z
" style="fill: none"/>
  </g>
  <g id="axes_1">
   <g id="text_1">
    <!-- $\mathfrak{R}: \mathrm{Real}$ -->
    <g transform="translate(313.523185 94.345056) scale(0.16 -0.16)">
     <defs>
      <path id="EUFM10-52" d="M 2765 2253 
C 2784 2471 2784 2701 2784 2912 
C 2784 2996 2758 3271 2752 3303 
C 2982 3700 3226 4045 3616 4045 
C 4083 4045 3949 3232 4090 3092 
C 4154 3028 4243 2996 4326 2989 
L 3501 2509 
C 3213 2464 2899 2324 2765 2253 
z
M 2675 3533 
C 2522 3949 2138 4416 1683 4416 
C 1088 4416 666 4020 512 3866 
C 333 3687 186 3495 186 3239 
C 186 2900 448 2669 646 2388 
C 685 2336 730 2279 730 2215 
C 730 2010 518 1805 320 1696 
L 416 1626 
C 794 1818 1203 2074 1203 2484 
C 1203 2842 634 3194 634 3456 
C 634 3847 896 4013 1254 4013 
C 1555 4013 1843 3802 2010 3552 
C 2259 3181 2266 2676 2266 2375 
C 2266 1536 2208 800 1523 333 
C 1370 500 1139 704 922 704 
C 595 704 326 269 173 26 
L 243 -76 
C 358 77 512 192 710 192 
C 845 192 1088 -6 1229 -147 
C 1581 148 1946 500 2304 788 
C 2560 1178 2675 1613 2739 2100 
C 2912 2151 3181 2221 3328 2221 
C 3514 2221 3725 2132 3859 1997 
C 3936 1920 4045 1799 4045 1172 
C 4045 986 4032 800 4026 602 
L 4435 -147 
L 5286 500 
L 5286 602 
C 5158 551 4941 468 4909 468 
C 4755 468 4634 813 4570 1012 
C 4512 1184 4486 1850 4467 2272 
C 4301 2413 4141 2509 3814 2509 
C 4250 2855 4749 3097 5158 3251 
L 5114 3335 
C 5037 3322 4954 3309 4870 3309 
C 4454 3309 4557 3642 4538 3808 
C 4499 4135 4378 4416 4026 4416 
C 3456 4416 3040 3994 2701 3565 
L 2675 3533 
z
" transform="scale(0.015625)"/>
      <path id="CMR17-3a" d="M 1062 2491 
C 1062 2650 934 2752 800 2752 
C 672 2752 538 2650 538 2491 
C 538 2332 666 2230 800 2230 
C 928 2230 1062 2332 1062 2491 
z
M 1062 261 
C 1062 420 934 522 800 522 
C 672 522 538 420 538 261 
C 538 102 666 0 800 0 
C 928 0 1062 102 1062 261 
z
" transform="scale(0.015625)"/>
      <path id="CMR17-52" d="M 2509 2146 
C 3117 2268 3629 2676 3629 3186 
C 3629 3785 2950 4326 2054 4326 
L 333 4326 
L 333 4160 
C 774 4160 845 4160 845 3873 
L 845 415 
C 845 128 774 128 333 128 
L 333 -26 
C 518 -26 851 -26 1050 -26 
C 1248 -26 1581 -26 1766 -26 
L 1766 128 
C 1325 128 1254 128 1254 417 
L 1254 2112 
L 2003 2112 
C 2368 2112 2573 1964 2662 1881 
C 2918 1632 2918 1459 2918 1024 
C 2918 595 2918 377 3110 160 
C 3354 -102 3680 -128 3821 -128 
C 4294 -128 4365 396 4365 503 
C 4365 540 4365 585 4307 585 
C 4256 585 4250 547 4250 522 
C 4218 112 4032 -26 3834 -26 
C 3482 -26 3443 375 3405 764 
C 3386 898 3373 993 3360 1133 
C 3322 1452 3270 1917 2509 2146 
z
M 1984 2214 
L 1254 2214 
L 1254 3913 
C 1254 4129 1267 4160 1523 4160 
L 1990 4160 
C 2522 4160 3142 3977 3142 3190 
C 3142 2372 2464 2214 1984 2214 
z
" transform="scale(0.015625)"/>
      <path id="CMR17-65" d="M 2438 1472 
C 2464 1498 2464 1511 2464 1576 
C 2464 2238 2118 2816 1389 2816 
C 710 2816 173 2169 173 1383 
C 173 551 781 -64 1459 -64 
C 2176 -64 2458 607 2458 740 
C 2458 784 2419 784 2406 784 
C 2362 784 2355 771 2330 696 
C 2189 265 1837 51 1504 51 
C 1229 51 954 203 781 480 
C 582 803 582 1176 582 1472 
L 2438 1472 
z
M 589 1568 
C 634 2505 1126 2714 1382 2714 
C 1818 2714 2112 2297 2118 1568 
L 589 1568 
z
" transform="scale(0.015625)"/>
      <path id="CMR17-61" d="M 2304 1653 
C 2304 2072 2304 2294 2035 2543 
C 1798 2752 1523 2816 1306 2816 
C 800 2816 435 2407 435 1971 
C 435 1728 627 1728 666 1728 
C 749 1728 896 1778 896 1954 
C 896 2112 774 2181 666 2181 
C 640 2181 608 2174 589 2168 
C 723 2592 1069 2714 1293 2714 
C 1613 2714 1965 2429 1965 1885 
L 1965 1600 
C 1587 1600 1133 1549 774 1357 
C 371 1133 256 813 256 570 
C 256 77 832 -64 1171 -64 
C 1523 -64 1850 139 1990 511 
C 2003 233 2182 -18 2464 -18 
C 2598 -18 2938 70 2938 567 
L 2938 920 
L 2822 920 
L 2822 562 
C 2822 178 2650 128 2566 128 
C 2304 128 2304 458 2304 738 
L 2304 1653 
z
M 1965 870 
C 1965 317 1568 38 1216 38 
C 896 38 646 275 646 570 
C 646 761 730 1100 1101 1305 
C 1408 1478 1760 1504 1965 1504 
L 1965 870 
z
" transform="scale(0.015625)"/>
      <path id="CMR17-6c" d="M 979 4396 
L 218 4326 
L 218 4160 
C 595 4160 653 4122 653 3817 
L 653 426 
C 653 184 627 153 218 153 
L 218 -13 
C 371 0 653 0 813 0 
C 979 0 1261 0 1414 -13 
L 1414 153 
C 1005 153 979 178 979 426 
L 979 4396 
z
" transform="scale(0.015625)"/>
     </defs>
     <use xlink:href="#EUFM10-52" transform="scale(0.996264)"/>
     <use xlink:href="#CMR17-3a" transform="translate(110.171315 0) scale(0.996264)"/>
     <use xlink:href="#CMR17-52" transform="translate(162.716382 0) scale(0.996264)"/>
     <use xlink:href="#CMR17-65" transform="translate(230.507484 0) scale(0.996264)"/>
     <use xlink:href="#CMR17-61" transform="translate(270.993145 0) scale(0.996264)"/>
     <use xlink:href="#CMR17-6c" transform="translate(316.683622 0) scale(0.996264)"/>
    </g>
   </g>
  </g>
 </g>
</svg>
